<?xml version="1.0" encoding="utf-8"?><svg viewBox="0 0 111 33" xmlns="http://www.w3.org/2000/svg" xmlns:xlink="http://www.w3.org/1999/xlink"><style>:root>svg{display:none}:root>svg:target{display:block}</style><svg fill="none" viewBox="0 0 102 20" id="firstcompany" xmlns="http://www.w3.org/2000/svg"><path d="M0 1.01h3.609v14.738H0V1.01zm5.048 9.194c0-3.65 2.248-5.839 5.621-5.839s5.621 2.188 5.621 5.84c0 3.65-2.17 5.86-5.621 5.86-3.451 0-5.621-2.13-5.621-5.86zm7.667 0c0-2.007-.776-3.186-2.012-3.186-1.237 0-2.001 1.134-2.001 3.186s.764 3.175 2 3.175c1.237 0 2.036-1.123 2.036-3.164l-.023-.01zm5.014 6.304h3.485c.159.378.436.694.79.899.352.204.762.287 1.166.235 1.383 0 2.103-.749 2.103-1.86v-2.04h.011a3.47 3.47 0 01-1.381 1.519 3.428 3.428 0 01-1.992.465c-2.642 0-4.396-2.03-4.396-5.522 0-3.492 1.676-5.669 4.497-5.669a3.43 3.43 0 012.025.53 3.473 3.473 0 011.348 1.613h-.101V4.626h3.575v11.043c0 2.664-2.338 4.331-5.779 4.331-3.125-.011-5.126-1.451-5.328-3.48l-.023-.012zm7.555-6.304c0-1.78-.81-2.902-2.091-2.902-1.282 0-2.069 1.133-2.069 2.902 0 1.769.776 2.812 2.069 2.812s2.091-.964 2.091-2.812zm5.003 0c0-3.65 2.248-5.839 5.62-5.839 3.374 0 5.622 2.188 5.622 5.84 0 3.65-2.18 5.86-5.621 5.86-3.44 0-5.599-2.13-5.599-5.86h-.022zm7.667 0c0-2.007-.787-3.186-2.012-3.186-1.226 0-2.002 1.134-2.002 3.186s.765 3.175 2.002 3.175c1.236 0 2.035-1.123 2.035-3.164l-.023-.01zm5.037-8.265c-.016-.371.078-.738.271-1.054a1.83 1.83 0 012.845-.369 1.865 1.865 0 01.437 2.035c-.137.345-.373.64-.678.848-.304.208-.664.32-1.032.32a1.762 1.762 0 01-1.277-.5 1.792 1.792 0 01-.544-1.269l-.022-.011zm0 2.676h3.653v11.179h-3.597l-.056-11.18zm16.796 5.59c0 3.639-1.62 5.747-4.374 5.747a3.43 3.43 0 01-2.01-.502 3.473 3.473 0 01-1.362-1.572h-.068v5.51h-3.609V4.648h3.587v1.996h.067a3.496 3.496 0 011.35-1.615 3.451 3.451 0 012.023-.54c2.833-.022 4.463 2.076 4.463 5.726l-.067-.01zm-3.677 0c0-1.77-.82-2.915-2.09-2.915-1.271 0-2.07 1.134-2.08 2.914-.012 1.78.809 2.903 2.08 2.903 1.27 0 2.158-1.055 2.158-2.892l-.068-.01zm9.837-5.851c3.025 0 4.902 1.44 4.925 3.753h-3.294c0-.805-.664-1.304-1.653-1.304-.99 0-1.462.385-1.462.963 0 .579.416.76 1.248.93l2.316.476c2.249.477 3.148 1.384 3.148 3.073 0 2.268-2.08 3.81-5.171 3.81-3.092 0-5.104-1.497-5.25-3.776h3.496c.101.828.753 1.315 1.81 1.315s1.551-.34 1.551-.94c0-.602-.337-.704-1.203-.885l-2.09-.443c-2.17-.464-3.306-1.61-3.306-3.321.068-2.223 1.956-3.64 5.003-3.64l-.068-.011zm17.314 11.428h-3.497v-2.097h-.067a3.197 3.197 0 01-1.209 1.733 3.152 3.152 0 01-2.018.591 3.827 3.827 0 01-2.919-1.206 3.895 3.895 0 01-1.05-3V4.626h3.61v6.394c0 1.316.685 2.03 1.81 2.03a1.831 1.831 0 001.386-.65 1.863 1.863 0 00.424-1.482V4.626h3.597l-.067 11.156zm1.742-11.167h3.508v2.154h.078c.194-.69.61-1.296 1.181-1.723a3.197 3.197 0 011.979-.636 2.861 2.861 0 011.994.584c.57.438.957 1.075 1.086 1.786h.157a3.4 3.4 0 011.287-1.763 3.352 3.352 0 012.086-.607 3.482 3.482 0 012.658 1.08 3.546 3.546 0 01.973 2.719v7.585h-3.631V9.138c0-1.133-.528-1.768-1.551-1.768a1.563 1.563 0 00-1.204.534 1.592 1.592 0 00-.382 1.268v6.622h-3.44v-6.69c0-1.133-.55-1.734-1.54-1.734a1.597 1.597 0 00-1.215.544 1.625 1.625 0 00-.393 1.281v6.599h-3.608l-.023-11.18z" fill="#4A5D69"/></svg><svg fill="none" viewBox="0 0 34 33" id="firstlogo" xmlns="http://www.w3.org/2000/svg"><path d="M34 11.038c0-2.224-.69-4.395-1.978-6.23A11.288 11.288 0 0026.778.751a11.62 11.62 0 00-6.68-.465 11.402 11.402 0 00-5.782 3.288H0V33h30.226V19.248a11.047 11.047 0 002.786-3.713c.65-1.415.987-2.947.988-4.497zm-5.816 0a5.285 5.285 0 01-.926 2.994 5.5 5.5 0 01-2.479 1.988 5.667 5.667 0 01-3.195.311 5.577 5.577 0 01-2.834-1.47 5.342 5.342 0 01-1.517-2.758 5.253 5.253 0 01.313-3.112 5.418 5.418 0 012.036-2.418 5.635 5.635 0 013.073-.909c1.465 0 2.87.566 3.906 1.573a5.315 5.315 0 011.623 3.8zM24.41 27.336H5.816V9.24h5.667a10.39 10.39 0 00-.173 1.799c.003 2.929 1.2 5.737 3.327 7.809 2.127 2.07 5.01 3.236 8.018 3.239a11.386 11.386 0 001.755-.145v5.395z" fill="#4A5D69"/></svg><svg fill="none" viewBox="0 0 95 18" id="secondcompany" xmlns="http://www.w3.org/2000/svg"><path d="M0 .9h3.378v13.313H0V.9zm4.717 8.286c0-3.292 2.072-5.257 5.27-5.257 3.197 0 5.269 1.965 5.269 5.257 0 3.293-2.027 5.269-5.27 5.269-3.242 0-5.269-1.921-5.269-5.269zm7.15 0c0-1.81-.732-2.875-1.88-2.875-1.149 0-1.87 1.097-1.87 2.875s.71 2.854 1.87 2.854c1.16 0 1.88-1.01 1.88-2.843v-.01zm4.661 5.675h3.243c.154.334.415.61.744.789.328.178.707.248 1.08.199 1.283 0 1.959-.68 1.959-1.669v-1.844h-.068a3.146 3.146 0 01-1.254 1.36 3.262 3.262 0 01-1.82.44c-2.465 0-4.098-1.832-4.098-4.983 0-3.15 1.554-5.136 4.143-5.136a3.294 3.294 0 011.864.491c.556.346.99.848 1.244 1.44V4.117h3.377v9.988c0 2.403-2.172 3.896-5.381 3.896-2.984 0-4.841-1.306-5.033-3.128v-.011zm7.037-5.686c0-1.602-.755-2.612-1.948-2.612s-1.925.999-1.925 2.612c0 1.614.72 2.525 1.925 2.525s1.948-.89 1.948-2.514v-.01zm4.65 0c0-3.292 2.071-5.257 5.269-5.257 3.197 0 5.28 1.965 5.28 5.257 0 3.293-2.026 5.269-5.28 5.269-3.254 0-5.27-1.91-5.27-5.258v-.01zm7.15 0c0-1.81-.733-2.875-1.881-2.875-1.148 0-1.813 1.108-1.813 2.897 0 1.79.71 2.854 1.858 2.854 1.148 0 1.835-1.02 1.835-2.854v-.022zm4.683-7.452c-.009-.333.084-.66.266-.941a1.71 1.71 0 01.758-.638 1.763 1.763 0 011.888.32c.246.23.418.527.492.851a1.64 1.64 0 01-.077.974c-.124.31-.339.577-.619.767-.28.19-.61.296-.952.302a1.683 1.683 0 01-1.24-.432 1.602 1.602 0 01-.385-.538 1.567 1.567 0 01-.131-.643v-.022zm0 2.415h3.378v10.075h-3.378V4.138zm15.639 5.037c0 3.293-1.498 5.17-4.065 5.17a3.287 3.287 0 01-1.877-.45 3.166 3.166 0 01-1.276-1.416h-.067v4.961h-3.378V4.116h3.378v1.8h.067a3.172 3.172 0 011.251-1.453 3.295 3.295 0 011.88-.49c2.59.044 4.131 1.932 4.131 5.224l-.044-.022zm-3.378 0c0-1.602-.755-2.623-1.937-2.623s-1.936 1.032-1.947 2.623c-.012 1.592.765 2.613 1.947 2.613s1.937-1 1.937-2.59v-.023zm9.176-5.268c2.803 0 4.503 1.295 4.582 3.37h-3.073c0-.714-.608-1.164-1.543-1.164-.934 0-1.351.351-1.351.867s.371.68 1.126.834l2.162.428c2.06.429 2.938 1.24 2.938 2.766 0 2.086-1.948 3.425-4.819 3.425-2.87 0-4.75-1.34-4.897-3.392h3.254c.1.747.709 1.186 1.7 1.186.99 0 1.44-.319 1.44-.845 0-.527-.314-.637-1.125-.802l-1.948-.406c-2.015-.406-3.074-1.449-3.074-2.985.023-1.976 1.836-3.26 4.628-3.26v-.022zm16.111 10.284h-3.254v-1.877h-.067a2.866 2.866 0 01-1.118 1.564 2.993 2.993 0 01-1.877.533 3.675 3.675 0 01-1.506-.233 3.6 3.6 0 01-1.27-.82 3.49 3.49 0 01-.808-1.26 3.42 3.42 0 01-.199-1.474V4.116h3.378v5.75c0 1.197.63 1.834 1.677 1.834.246 0 .489-.05.712-.149.224-.098.424-.242.586-.422a1.638 1.638 0 00.414-1.328V4.116h3.377l-.045 10.075zM79.23 4.116h3.265v1.942h.067a2.92 2.92 0 011.097-1.553 3.048 3.048 0 011.842-.576 2.74 2.74 0 011.876.55c.531.408.887.995.995 1.645h.068a3.1 3.1 0 011.202-1.627 3.234 3.234 0 011.973-.568c.459-.015.916.064 1.342.233.426.168.81.422 1.13.745.318.323.563.708.72 1.13.155.42.219.87.185 1.316v6.86h-3.377V8.232c0-1.098-.507-1.603-1.453-1.603-.21-.002-.42.04-.612.124a1.474 1.474 0 00-.505.36 1.404 1.404 0 00-.358 1.14v5.96h-3.209V8.188c0-1.01-.506-1.559-1.43-1.559-.213 0-.423.044-.618.13-.195.085-.368.21-.51.365a1.437 1.437 0 00-.37 1.151v5.938h-3.376l.056-10.097z" fill="#4A5D69"/></svg><svg fill="none" viewBox="0 0 30 31" id="secondlogo" xmlns="http://www.w3.org/2000/svg"><path d="M28.762 9.363a15.236 15.236 0 00-2.212-3.68 15.06 15.06 0 00-4.894-4.049 14.528 14.528 0 00-12.247-.53 14.943 14.943 0 00-5.203 3.611 15.552 15.552 0 00-3.317 5.498 15.946 15.946 0 00.925 12.633 15.338 15.338 0 004.079 4.92c1.078.866 2.27 1.57 3.539 2.091A14.389 14.389 0 0015.038 31c3.97-.01 7.773-1.645 10.578-4.548 2.805-2.903 4.381-6.837 4.384-10.94a15.747 15.747 0 00-1.238-6.15zM15.027 3.156c1.727 0 3.433.39 4.998 1.143-.381.17-.783.29-1.194.354a6.263 6.263 0 00-3.573 1.851 6.633 6.633 0 00-1.79 3.693 3.474 3.474 0 01-.977 2.066 3.272 3.272 0 01-2.02.963 6.263 6.263 0 00-3.573 1.85 6.633 6.633 0 00-1.79 3.694 3.378 3.378 0 01-.874 1.989A12.704 12.704 0 014.941 8.87a12.115 12.115 0 014.335-4.21 11.638 11.638 0 015.762-1.528l-.011.023zM5.882 23.513c.133-.126.265-.24.398-.377a6.343 6.343 0 001.791-3.692c.072-.79.413-1.527.962-2.08a3.09 3.09 0 012.002-.983 6.263 6.263 0 003.573-1.85 6.634 6.634 0 001.79-3.694c.048-.826.391-1.604.962-2.183a3.129 3.129 0 012.024-.949 5.98 5.98 0 003.317-1.634 11.921 11.921 0 012.61 3.177.976.976 0 01-.143.16 3.134 3.134 0 01-2.002 1.006 6.24 6.24 0 00-3.577 1.847 6.61 6.61 0 00-1.786 3.697 3.478 3.478 0 01-.96 2.08 3.274 3.274 0 01-2.015.983 6.295 6.295 0 00-3.587 1.848 6.665 6.665 0 00-1.81 3.696 3.667 3.667 0 01-.541 1.566 12.148 12.148 0 01-3.008-2.618zm9.145 4.412a11.628 11.628 0 01-3.317-.48c.368-.71.608-1.486.707-2.286a3.478 3.478 0 01.955-2.076 3.274 3.274 0 012.009-.987 6.262 6.262 0 003.58-1.848 6.632 6.632 0 001.794-3.696 3.478 3.478 0 01.955-2.076 3.274 3.274 0 012.009-.987 6.196 6.196 0 002.83-1.143 12.77 12.77 0 01.162 5.59 12.565 12.565 0 01-2.238 5.093 12.06 12.06 0 01-4.18 3.553 11.647 11.647 0 01-5.266 1.286v.057z" fill="#4A5D69"/></svg><svg fill="none" viewBox="0 0 111 12" id="thirdcompany" xmlns="http://www.w3.org/2000/svg"><path fill-rule="evenodd" clip-rule="evenodd" d="M34 6.04c0-.4-.101-.549-.537-.549h-3.785c-.402 0-.547.149-.547.55v.777c0 .4.145.561.547.561h2.423v.847c0 1.12-1.005 1.887-2.635 1.887s-2.534-.79-2.534-2.288V4.187c0-1.476.893-2.288 2.534-2.288a2.255 2.255 0 011.46.318c.44.27.778.68.963 1.17.134.4.29.48.67.343l.87-.31a.475.475 0 00.341-.268.503.503 0 00-.005-.44C33.15.903 31.699 0 29.466 0 26.63 0 25 1.602 25 4.21v3.546c0 2.643 1.574 4.233 4.466 4.233a4.79 4.79 0 003.35-1.075c.38-.331.685-.745.89-1.213.205-.467.305-.975.293-1.487V6.04zM1.437 1c.398 0 .53.142.53.525v8.66H6.47c.387 0 .531.142.531.525v.765c0 .383-.144.525-.53.525H.541C.155 12 0 11.858 0 11.475v-9.95C0 1.142.155 1 .542 1h.896zM11 4.884C11 2.459 12.643 1 15.5 1 18.358 1 20 2.459 20 4.884v3.232C20 10.541 18.346 12 15.5 12S11 10.541 11 8.116V4.884zm7.11 0c0-1.365-.911-2.1-2.554-2.1-1.642 0-2.542.746-2.542 2.1v3.253c0 1.375.9 2.1 2.542 2.1 1.643 0 2.554-.756 2.554-2.1V4.884zm20.89 0C39 2.459 40.642 1 43.5 1S48 2.459 48 4.884v3.232C48 10.541 46.346 12 43.5 12S39 10.541 39 8.116V4.884zm7.099 0c0-1.365-.911-2.1-2.543-2.1-1.631 0-2.553.746-2.553 2.1v3.253c0 1.375.91 2.1 2.553 2.1 1.643 0 2.543-.756 2.543-2.1V4.884zM53.284 1c-.215 0-.284.077-.284.317v10.366c0 .24.069.317.284.317h.451c.265 0 .265-.076.265-.317V1.317c0-.24-.049-.317-.265-.317h-.45zm11.208 0c.93 0 1.822.362 2.48 1.006A3.396 3.396 0 0168 4.433c0 .911-.37 1.784-1.028 2.428a3.547 3.547 0 01-2.48 1.006H61.14v3.816c0 .24-.056.317-.29.317h-.526c-.235 0-.324-.076-.324-.317V1.317c0-.24.09-.317.324-.317h4.168zm-.1 5.784c.319 0 .636-.061.931-.181a2.44 2.44 0 00.79-.517 2.38 2.38 0 00.528-.773 2.34 2.34 0 00-.528-2.598 2.44 2.44 0 00-.79-.517 2.482 2.482 0 00-.932-.181H61.04v4.767h3.352zm15.663-5.267a4.607 4.607 0 00-2.586-.494c-2.69 0-4.215 1.19-4.297 3.017-.017.374.058.746.219 1.09.16.345.404.654.713.905.307.221.659.388 1.036.49.382.113.771.207 1.165.282l1.257.146a9.004 9.004 0 011.852.293c.4.078.758.282 1.007.575.25.292.375.654.355 1.022 0 1.4-1.083 2.088-3.284 2.088a3.632 3.632 0 01-2.008-.451 3.089 3.089 0 01-1.322-1.428.275.275 0 00-.063-.101.313.313 0 00-.103-.07.344.344 0 00-.253-.006l-.512.167a.327.327 0 00-.121.058.286.286 0 00-.083.098.257.257 0 00.006.24c.308.817.918 1.514 1.73 1.975.811.462 1.774.66 2.73.563 2.91 0 4.494-1.18 4.494-3.133a2.163 2.163 0 00-.418-1.526 2.61 2.61 0 00-1.399-.948 8.819 8.819 0 00-2.328-.428 8.719 8.719 0 01-1.933-.335 1.824 1.824 0 01-1.075-.555 1.487 1.487 0 01-.404-1.053c0-1.252 1.071-1.952 3.039-1.952a3.467 3.467 0 011.919.386 2.96 2.96 0 011.295 1.326c.128.199.21.21.419.136l.512-.209c.187-.083.28-.219.187-.386-.353-.747-.965-1.372-1.746-1.782zm7.161 6.595c.05.757.418 1.469 1.027 1.99.61.52 1.414.81 2.251.81s1.642-.29 2.251-.81c.61-.521.977-1.233 1.027-1.99V1.311c0-.236.082-.311.342-.311h.543c.26 0 .343.075.343.31v6.791C95 10.533 93.417 12 90.5 12S86 10.533 86 8.101v-6.79c0-.236.083-.311.33-.311h.556c.248 0 .33.075.33.31v6.802zM111 1.319c0-.24-.077-.317-.318-.317l-.45.055c-.241 0-.307.032-.427.262l-3.816 6.734-3.838-6.8a.434.434 0 00-.438-.251h-.395c-.241 0-.318.076-.318.317v10.364c0 .24.077.317.318.317h.428c.241 0 .318-.076.318-.317V5.386a23.901 23.901 0 00-.176-2.766h.066c.305.82.672 1.617 1.096 2.383l2.391 4.187a.405.405 0 00.373.24h.307a.386.386 0 00.361-.24l2.358-4.143c.453-.777.853-1.585 1.195-2.416h.066c-.124.91-.187 1.826-.187 2.744v6.308c0 .24.077.317.307.317h.461c.241 0 .318-.076.318-.317V1.319z" fill="#4A5D69"/></svg><svg fill="none" viewBox="0 0 22 32" id="thirdlogo" xmlns="http://www.w3.org/2000/svg"><path d="M10.259 19.982v8.12c0 .312-.13.61-.36.83-.23.22-.542.344-.868.344-.326 0-.638-.123-.869-.343-.23-.22-.36-.52-.36-.83v-8.11a2.144 2.144 0 002.457-.011zm10.458-2.348c-.311 0-.61.119-.83.33-.22.21-.345.496-.345.794v1.415c0 .311.13.61.36.83.23.22.543.343.868.343.326 0 .638-.123.869-.343.23-.22.36-.519.36-.83v-1.36a1.08 1.08 0 00-.08-.472 1.12 1.12 0 00-.279-.397 1.186 1.186 0 00-.426-.251 1.226 1.226 0 00-.497-.059zM5.135 23.06a2.18 2.18 0 01-1.175-.382v8.144c0 .312.13.612.362.834.23.22.545.345.872.345.327 0 .641-.124.873-.345.23-.222.36-.522.36-.834v-8.087a2.226 2.226 0 01-1.292.325zm11.752-7.862a1.226 1.226 0 00-.468.069c-.15.053-.286.134-.402.24a1.123 1.123 0 00-.27.37 1.08 1.08 0 00-.094.444v6.256c0 .313.13.613.361.834.231.221.545.346.873.346.327 0 .64-.125.872-.346.231-.22.361-.52.361-.834V16.4a1.08 1.08 0 00-.08-.475 1.122 1.122 0 00-.282-.4 1.185 1.185 0 00-.43-.25 1.225 1.225 0 00-.5-.055l.059-.022zM12.985 17.6a2.219 2.219 0 01-1.234-.382v8.165c0 .313.13.613.362.834.231.221.545.346.872.346.327 0 .641-.125.873-.346.231-.22.361-.52.361-.834V17.23a2.146 2.146 0 01-1.293.393l.06-.022zM2.468 23.857V1.045a1.033 1.033 0 00-.328-.74A1.131 1.131 0 001.363 0h-.258C.814 0 .535.11.328.305a1.033 1.033 0 00-.328.74v22.812c0 .28.116.548.324.746.207.198.488.31.78.31h.26c.292 0 .573-.112.78-.31.207-.198.324-.466.324-.746zm2.797-1.662h-.259c-.293 0-.574-.112-.781-.31a1.033 1.033 0 01-.324-.746V3.763c.004-.278.121-.544.328-.74.207-.195.486-.305.777-.305h.259c.29 0 .57.11.777.305.206.196.324.462.327.74V21.16c0 .28-.116.549-.323.747-.208.198-.488.309-.781.309v-.022zm3.89-2.674h-.271c-.29 0-.568-.11-.773-.306a1.022 1.022 0 01-.32-.738V6.458a1.004 1.004 0 01.08-.403c.054-.128.134-.244.236-.342.102-.099.223-.177.356-.23.133-.053.276-.08.42-.08h.271c.291.003.57.115.774.313.204.197.32.464.32.742v12.019c0 .277-.116.542-.321.738a1.119 1.119 0 01-.773.306zm3.889-2.752h-.247c-.29 0-.57-.11-.777-.305a1.033 1.033 0 01-.327-.74V9.256c-.01-.144.011-.289.062-.425.052-.136.131-.26.235-.365.104-.106.229-.19.367-.247.14-.057.289-.086.44-.086h.259c.293 0 .574.111.78.31.208.197.324.466.324.746v6.514c.002.14-.026.278-.08.408-.055.13-.136.247-.24.346-.102.1-.224.178-.359.232a1.15 1.15 0 01-.425.081h-.012zm3.901-2.414h-.258c-.293 0-.574-.112-.781-.31a1.033 1.033 0 01-.324-.746v-1.674c.003-.278.12-.544.328-.74a1.13 1.13 0 01.777-.304h.258c.291 0 .57.11.777.305.207.195.325.461.328.74v1.673c0 .278-.115.545-.32.742a1.13 1.13 0 01-.773.313h-.012z" fill="#4A5D69"/></svg></svg>